<svg viewBox="0 0 11 11" fill="none" xmlns="http://www.w3.org/2000/svg">
<mask id="mask0_1970_4247" style="mask-type:alpha" maskUnits="userSpaceOnUse" x="0" y="0" width="11" height="11">
<rect x="0.449219" y="0.5" width="10" height="10" fill="#D9D9D9"/>
</mask>
<g mask="url(#mask0_1970_4247)">
<path d="M3.87628 9.57292C3.82073 9.51736 3.78948 9.44792 3.78253 9.36458C3.77559 9.28125 3.79642 9.20833 3.84503 9.14583L5.86586 6.33333L2.49087 6.01042C2.31031 5.99653 2.19045 5.90278 2.13128 5.72917C2.07239 5.55556 2.11239 5.40972 2.25128 5.29167L6.5742 1.41667C6.6367 1.35417 6.71142 1.32458 6.79836 1.32792C6.88503 1.33153 6.95961 1.36458 7.02211 1.42708C7.07767 1.48264 7.10892 1.55208 7.11586 1.63542C7.12281 1.71875 7.10198 1.79167 7.05337 1.85417L5.03253 4.66667L8.40753 4.98958C8.58809 5.00347 8.70781 5.09722 8.7667 5.27083C8.82586 5.44444 8.786 5.59028 8.64711 5.70833L4.3242 9.58333C4.2617 9.64583 4.18712 9.67528 4.10045 9.67167C4.0135 9.66833 3.93878 9.63542 3.87628 9.57292Z" fill="#141415"/>
</g>
</svg>