<svg viewBox="0 0 11 11" fill="none" xmlns="http://www.w3.org/2000/svg">
<mask id="mask0_1970_4233" style="mask-type:alpha" maskUnits="userSpaceOnUse" x="0" y="0" width="11" height="11">
<rect x="0.949219" y="0.5" width="10" height="10" fill="#D9D9D9"/>
</mask>
<g mask="url(#mask0_1970_4233)">
<path d="M8.98055 4.32291L7.5118 2.85416L6.62638 3.72916L5.74097 2.85416L6.91805 1.66666C7.00138 1.58332 7.09513 1.52249 7.1993 1.48416C7.30347 1.4461 7.40763 1.42707 7.5118 1.42707C7.62291 1.42707 7.72888 1.4461 7.82972 1.48416C7.93027 1.52249 8.01874 1.58332 8.09513 1.66666L8.98055 2.55207C9.10555 2.67013 9.19763 2.80721 9.2568 2.96332C9.31569 3.11971 9.34513 3.27777 9.34513 3.43749C9.34513 3.59721 9.31569 3.75346 9.2568 3.90624C9.19763 4.05902 9.10555 4.19791 8.98055 4.32291ZM3.24097 6.23957C3.11597 6.11457 3.05347 5.96694 3.05347 5.79666C3.05347 5.62666 3.11597 5.47916 3.24097 5.35416L4.2618 4.32291L5.14722 5.20832L4.11597 6.23957C3.99791 6.36457 3.85374 6.42707 3.68347 6.42707C3.51347 6.42707 3.36597 6.36457 3.24097 6.23957ZM2.79305 9.33332C2.71666 9.24999 2.65763 9.15805 2.61597 9.05749C2.5743 8.95666 2.55347 8.85069 2.55347 8.73957C2.55347 8.62846 2.57249 8.52249 2.61055 8.42166C2.64888 8.3211 2.70972 8.22916 2.79305 8.14582L5.74097 5.20832L4.41805 3.87499C4.29305 3.75694 4.23055 3.61277 4.23055 3.44249C4.23055 3.27249 4.29305 3.12499 4.41805 2.99999C4.53611 2.87499 4.68194 2.81249 4.85555 2.81249C5.02916 2.81249 5.17847 2.87499 5.30347 2.99999L6.62638 4.32291L7.22013 3.72916L8.3868 4.91666C8.47013 4.99999 8.5118 5.09721 8.5118 5.20832C8.5118 5.31944 8.47013 5.41666 8.3868 5.49999C8.30347 5.58332 8.20624 5.62499 8.09513 5.62499C7.98402 5.62499 7.8868 5.58332 7.80347 5.49999L3.97013 9.33332C3.8868 9.41666 3.79486 9.47735 3.6943 9.51541C3.59347 9.55374 3.49097 9.57291 3.3868 9.57291C3.28263 9.57291 3.17847 9.55207 3.0743 9.51041C2.97013 9.46874 2.87638 9.40971 2.79305 9.33332Z" fill="#141415"/>
</g>
</svg>
