<svg width="23" height="23" viewBox="0 0 23 23" fill="none" xmlns="http://www.w3.org/2000/svg">
<mask id="mask0_1970_4333" style="mask-type:alpha" maskUnits="userSpaceOnUse" x="4" y="3" width="16" height="16">
<rect x="4.0625" y="3.9375" width="15" height="15" fill="#D9D9D9"/>
</mask>
<g mask="url(#mask0_1970_4333)">
<path d="M10.2344 9.01563L8.67188 7.45312L10.6719 5.45312C10.7969 5.32812 10.9375 5.23437 11.0938 5.17187C11.25 5.10937 11.4063 5.07812 11.5625 5.07812C11.7188 5.07812 11.875 5.10937 12.0313 5.17187C12.1875 5.23437 12.3281 5.32812 12.4531 5.45312L14.4531 7.45312L12.8906 9.01563L11.5625 7.6875L10.2344 9.01563ZM7.57812 14.3281L5.57812 12.3281C5.45312 12.2031 5.35937 12.0625 5.29687 11.9063C5.23437 11.75 5.20312 11.5938 5.20312 11.4375C5.20312 11.2813 5.23437 11.125 5.29687 10.9688C5.35937 10.8125 5.45312 10.6719 5.57812 10.5469L7.57812 8.54688L9.14063 10.1094L7.8125 11.4375L9.14063 12.7656L7.57812 14.3281ZM15.5469 14.3281L13.9844 12.7656L15.3125 11.4375L13.9844 10.1094L15.5469 8.54688L17.5469 10.5469C17.6719 10.6719 17.7656 10.8125 17.8281 10.9688C17.8906 11.125 17.9219 11.2813 17.9219 11.4375C17.9219 11.5938 17.8906 11.75 17.8281 11.9063C17.7656 12.0625 17.6719 12.2031 17.5469 12.3281L15.5469 14.3281ZM11.5625 17.7969C11.4063 17.7969 11.25 17.7656 11.0938 17.7031C10.9375 17.6406 10.7969 17.5469 10.6719 17.4219L8.67188 15.4219L10.2344 13.8594L11.5625 15.1875L12.8906 13.8594L14.4531 15.4219L12.4531 17.4219C12.3281 17.5469 12.1875 17.6406 12.0313 17.7031C11.875 17.7656 11.7188 17.7969 11.5625 17.7969ZM12.4531 11.4375C12.4531 11.6771 12.3646 11.8854 12.1875 12.0625C12.0104 12.2396 11.8021 12.3281 11.5625 12.3281C11.3229 12.3281 11.1146 12.2396 10.9375 12.0625C10.7604 11.8854 10.6719 11.6771 10.6719 11.4375C10.6719 11.1979 10.7604 10.9896 10.9375 10.8125C11.1146 10.6354 11.3229 10.5469 11.5625 10.5469C11.8021 10.5469 12.0104 10.6354 12.1875 10.8125C12.3646 10.9896 12.4531 11.1979 12.4531 11.4375Z" fill="#141415"/>
</g>
</svg>