<svg width="20" height="20" viewBox="0 0 20 20" fill="none" xmlns="http://www.w3.org/2000/svg">
<g clip-path="url(#clip0_1486_4496)">
<path d="M6.283 18.75C13.829 18.75 17.959 12.496 17.959 7.08196C17.959 6.90596 17.959 6.72996 17.951 6.55496C18.755 5.97263 19.4489 5.25169 20 4.42596C19.2496 4.75708 18.4543 4.97544 17.64 5.07396C18.4979 4.56094 19.1403 3.75396 19.448 2.80296C18.6414 3.28099 17.7585 3.61656 16.838 3.79496C16.2744 3.19605 15.5441 2.78012 14.7414 2.60102C13.9388 2.42192 13.1009 2.48791 12.3362 2.79043C11.5715 3.09295 10.9152 3.61807 10.4523 4.29781C9.98945 4.97755 9.7413 5.78059 9.74 6.60296C9.74 6.92296 9.78 7.23396 9.845 7.53796C8.21324 7.4563 6.61687 7.03255 5.15943 6.29418C3.702 5.55582 2.41605 4.51933 1.385 3.25196C0.861513 4.1559 0.701766 5.22522 0.93821 6.24269C1.17465 7.26017 1.78956 8.14947 2.658 8.72996C2.00709 8.70734 1.37062 8.53195 0.8 8.21796V8.27396C0.801237 9.22072 1.1293 10.138 1.72875 10.8708C2.3282 11.6037 3.16227 12.1071 4.09 12.296C3.73824 12.3929 3.37488 12.4414 3.01 12.44C2.745 12.44 2.489 12.416 2.24 12.368C2.50202 13.1833 3.01259 13.8962 3.70013 14.4067C4.38768 14.9173 5.21775 15.1999 6.074 15.215C4.6204 16.3572 2.82471 16.9772 0.976 16.975C0.649823 16.9765 0.323865 16.9578 0 16.919C1.87706 18.1155 4.05698 18.7508 6.283 18.75Z" fill="#C4C4C4"/>
</g>
<defs>
<clipPath id="clip0_1486_4496">
<rect width="20" height="20" fill="white"/>
</clipPath>
</defs>
</svg>